<?xml version="1.0" encoding="UTF-8" standalone="no"?>
<!-- Created with Inkscape (http://www.inkscape.org/) -->

<svg
   width="406.39999mm"
   height="270.93332mm"
   viewBox="0 0 406.39999 270.93332"
   version="1.1"
   id="svg1"
   xml:space="preserve"
   inkscape:version="1.4.2 (ebf0e940, 2025-05-08)"
   sodipodi:docname="logo.svg"
   xmlns:inkscape="http://www.inkscape.org/namespaces/inkscape"
   xmlns:sodipodi="http://sodipodi.sourceforge.net/DTD/sodipodi-0.dtd"
   xmlns="http://www.w3.org/2000/svg"
   xmlns:svg="http://www.w3.org/2000/svg"><sodipodi:namedview
     id="namedview1"
     pagecolor="#ffffff"
     bordercolor="#000000"
     borderopacity="0.25"
     inkscape:showpageshadow="2"
     inkscape:pageopacity="0.0"
     inkscape:pagecheckerboard="0"
     inkscape:deskcolor="#d1d1d1"
     inkscape:document-units="mm"
     inkscape:zoom="0.58528123"
     inkscape:cx="768.86115"
     inkscape:cy="464.73385"
     inkscape:window-width="1712"
     inkscape:window-height="1041"
     inkscape:window-x="8"
     inkscape:window-y="40"
     inkscape:window-maximized="0"
     inkscape:current-layer="layer1" /><defs
     id="defs1" /><g
     inkscape:label="Layer 1"
     inkscape:groupmode="layer"
     id="layer1"
     transform="translate(112.94879,10.631075)"><rect
       style="fill:#151c29;stroke-width:0.264583;fill-opacity:1"
       id="rect1572900"
       width="406.39999"
       height="270.93332"
       x="-112.94879"
       y="-10.631075"
       transform="translate(-1.2083334e-6)" /><path
       style="fill:#ffffff"
       d="m 197.53151,77.276706 c -0.50229,-2.426519 -0.31064,-2.252614 -2.51867,-2.285443 -2.54226,-0.0378 -3.26015,-0.479025 -4.18535,-2.572361 l -0.68874,-1.558342 -1.45888,-2.08e-4 c -1.07133,-1.54e-4 -1.90447,-0.211008 -3.13628,-0.79375 -1.98511,-0.939112 -2.64074,-0.982876 -3.58596,-0.239365 -0.96678,0.760465 -1.67487,2.24678 -2.22633,4.673166 -0.42512,1.870504 -0.52579,2.055755 -1.15743,2.129824 -0.94504,0.110821 -2.86225,-1.688326 -2.86225,-2.685991 0,-0.953458 0.45441,-0.882821 1.61571,0.251161 l 0.97656,0.953586 0.44699,-1.537598 c 0.99948,-3.43807 2.54448,-5.396658 4.25708,-5.396658 h 0.90574 v -2.375895 c 0,-1.999267 -0.38194,-3.931526 -0.93045,-4.707196 -0.0279,-0.0394 -0.69311,0.05974 -1.47833,0.220298 -1.71239,0.35015 -5.7933,2.286328 -5.7933,2.748618 0,0.503878 -0.89995,1.203759 -1.54786,1.203759 -0.80774,0 -1.28866,-1.090819 -0.87815,-1.991801 0.35369,-0.776266 1.06941,-1.136647 1.35135,-0.680444 0.13944,0.225612 0.87422,-0.01537 2.58356,-0.847326 1.31379,-0.639433 2.6726,-1.25283 3.01959,-1.363104 0.58684,-0.1865 0.59394,-0.209934 0.10172,-0.335638 -1.07123,-0.273573 -2.06922,-1.253072 -2.71587,-2.665532 -0.55887,-1.220745 -0.66141,-1.829882 -0.64979,-3.860409 0.023,-4.020232 1.20873,-6.62836 3.39264,-7.462404 0.90685,-0.346327 1.73548,-0.41572 3.78545,-0.317007 l 2.62446,0.126377 0.15044,-1.744585 c 0.27876,-3.232747 0.25809,-4.387175 -0.0913,-5.101149 -0.42199,-0.862218 -0.25843,-1.365677 0.63354,-1.950115 0.62691,-0.410768 0.72342,-0.41144 1.33714,-0.0093 0.86938,0.569643 0.83733,1.367525 -0.0897,2.233528 -0.72014,0.672709 -0.75744,0.828694 -0.90249,3.773807 l -0.1513,3.072094 2.27906,0.631825 c 1.25348,0.347504 2.59899,0.899273 2.99003,1.226153 1.11345,0.930772 1.64319,2.536813 1.63666,4.961922 -0.007,2.559098 -0.40019,4.108 -1.41912,5.588962 l -0.76639,1.11392 0.98976,-0.270282 c 2.34217,-0.639593 5.88456,-2.913916 5.88456,-3.778072 0,-0.19082 0.23087,-0.628027 0.51305,-0.97157 l 0.51304,-0.624624 0.59837,0.5896 c 0.49994,0.492614 0.5561,0.709805 0.34138,1.320346 -0.14134,0.40191 -0.47913,0.773526 -0.75063,0.825813 -0.2715,0.05229 -1.10391,0.592141 -1.8498,1.199676 -1.67465,1.36402 -3.71916,2.26427 -5.97712,2.631882 -0.94747,0.154254 -1.75679,0.301803 -1.7985,0.327887 -0.0417,0.02608 0.24522,0.985645 0.63761,2.13236 0.86069,2.51526 0.98603,5.204562 0.29194,6.26388 -0.4059,0.619476 -0.41015,0.781644 -0.0475,1.809496 0.77863,2.206863 1.81881,2.801153 4.03482,2.305231 1.37364,-0.307406 1.47382,-0.293945 1.92085,0.258107 0.65455,0.808338 1.12419,3.105882 0.77011,3.767489 -0.38627,0.721743 -0.74924,0.637599 -0.92564,-0.214581 z m -6.94752,-8.271318 c 0.86797,-1.071891 0.50419,-4.65656 -0.73135,-7.206806 l -0.48069,-0.992188 h -2.68847 -2.68846 l 0.47987,1.389063 c 0.3256,0.942484 0.48265,2.179804 0.48851,3.84863 l 0.009,2.459568 1.38906,0.661382 c 1.71852,0.81825 3.48512,0.751462 4.22289,-0.159649 z m -1.63525,-9.852639 c 0.64812,-0.327422 1.43832,-0.986618 1.756,-1.46488 1.598,-2.405777 1.48702,-7.744274 -0.19033,-9.155675 -1.2362,-1.040191 -6.62736,-2.01423 -8.96373,-1.619504 -2.46376,0.416251 -3.57743,2.517486 -3.57752,6.749955 -5e-5,2.680416 0.27791,3.554562 1.49024,4.686539 0.89464,0.835344 3.14686,1.361304 5.9156,1.381465 1.97697,0.0144 2.59552,-0.08574 3.56974,-0.5779 z m -2.26351,-3.913289 c -0.22739,-0.367912 -0.22335,-2.263086 0.006,-2.633545 0.30834,-0.498914 0.91653,-0.267873 1.08744,0.413107 0.32182,1.282229 -0.56257,3.078781 -1.09305,2.220438 z m -6.99399,-1.415925 c -0.37973,-0.998785 -0.34474,-1.817955 0.10361,-2.425425 0.29129,-0.394661 0.45219,-0.441524 0.69486,-0.202374 0.49263,0.485482 0.44325,2.386043 -0.0755,2.904764 -0.42033,0.420332 -0.46429,0.403494 -0.723,-0.276965 z m 12.96732,3.516182 c 0.7923,-1.552341 1.14273,-4.17948 0.78643,-5.895755 -0.16773,-0.807925 -0.52538,-1.740564 -0.79478,-2.072531 -0.48151,-0.593324 -0.48347,-0.579001 -0.11525,0.843145 0.20602,0.795697 0.37282,1.986322 0.37067,2.645833 -0.005,1.678867 -0.70456,4.502383 -1.32601,5.355584 -0.28719,0.39429 -0.52217,0.799696 -0.52217,0.900903 0,0.392234 1.1393,-0.872347 1.60111,-1.777179 z"
       id="path1572892" /><path
       style="fill:#ffffff"
       d="m 106.70829,83.50767 c -0.48059,-0.480593 -0.38027,-1.303127 0.17671,-1.44878 0.46596,-0.121851 0.43323,-0.370046 -0.5725,-4.340855 l -1.06672,-4.211614 -1.87489,-0.0058 c -1.98155,-0.0061 -3.21604,-0.416572 -5.096655,-1.694483 -1.886682,-1.282033 -2.862807,-0.661904 -2.434579,1.546682 0.350617,1.808303 0.274129,3.493755 -0.175484,3.8669 -0.342307,0.28409 -0.650636,0.171845 -1.918229,-0.698319 -0.950921,-0.652779 -1.541737,-1.25661 -1.595065,-1.630202 -0.130143,-0.911709 0.603653,-0.991227 1.666458,-0.180586 0.520404,0.396931 0.986561,0.675325 1.035904,0.618652 0.04934,-0.05667 -0.02884,-0.95628 -0.173734,-1.999127 -0.459796,-3.309233 0.243578,-4.233687 2.608192,-3.427982 0.692921,0.236102 1.268412,0.428073 1.278869,0.426603 0.01046,-0.0015 0.05081,-1.414932 0.08967,-3.141025 l 0.07065,-3.138353 -0.828899,-0.16578 c -1.73903,-0.347806 -3.678034,-3.298381 -3.678034,-5.596852 0,-0.437579 -0.248081,-0.645883 -1.058333,-0.88864 -0.766859,-0.229757 -1.058333,-0.459897 -1.058333,-0.835631 0,-0.590338 0.08405,-0.609265 1.237075,-0.278581 l 0.836707,0.239964 0.185754,-1.364443 c 0.509327,-3.741233 2.659384,-5.438903 6.913716,-5.459017 1.27833,-0.006 1.37766,-0.05418 1.51486,-0.734072 0.50357,-2.495598 0.72192,-4.396784 0.57307,-4.989826 -0.30499,-1.215174 0.94643,-1.941544 1.72621,-1.00196 0.29586,0.356483 0.28025,0.549714 -0.0976,1.208078 -0.24739,0.431045 -0.5708,1.579536 -0.7187,2.552203 -0.1479,0.972666 -0.32566,2.01991 -0.39502,2.327208 -0.11334,0.502093 0.0173,0.573524 1.28862,0.704738 0.7781,0.08031 2.01901,0.452224 2.75757,0.826481 2.18365,1.106538 3.09904,2.726954 3.4486,6.104696 l 0.17601,1.700827 1.25677,-0.970926 c 0.69123,-0.53401 1.25678,-1.156419 1.25678,-1.383133 0,-0.226713 0.1901,-0.683621 0.42245,-1.01535 0.49784,-0.710757 1.61238,-0.697442 2.0644,0.02466 0.40736,0.650755 -0.31243,1.886266 -1.17032,2.008839 -0.35758,0.05109 -1.09063,0.490841 -1.629,0.97722 -0.53836,0.48638 -1.31543,1.058385 -1.72682,1.271122 -0.54169,0.280119 -0.83533,0.713377 -1.06469,1.570939 -0.50988,1.906365 -2.29223,3.628451 -3.75544,3.628451 -0.46733,0 -0.51121,0.109735 -0.34387,0.859896 0.39347,1.763823 0.21928,5.315313 -0.31925,6.508914 -0.50971,1.129749 -0.50953,1.137808 0.0694,3.033536 0.31928,1.045428 0.90645,3.055262 1.30483,4.466298 0.51564,1.82637 0.85773,2.60058 1.18735,2.687209 1.12638,0.29603 -0.0338,1.758729 -1.39502,1.758729 -0.37508,0 -0.82484,-0.142875 -0.99946,-0.3175 z m -1.89035,-11.332009 c 1.04074,-0.556983 1.39235,-1.772812 1.21898,-4.21497 -0.25264,-3.558707 -0.17716,-3.449603 -2.38897,-3.453015 -1.03805,-0.0016 -2.32172,-0.07474 -2.8526,-0.162536 l -0.965226,-0.159623 -0.192322,2.565219 c -0.257859,3.439364 4.69e-4,4.566649 1.192608,5.204265 1.0113,0.540893 3.16634,0.660147 3.98753,0.22066 z m 4.05821,-9.489918 c 0.98288,-0.924479 1.31437,-2.217792 1.30611,-5.095748 -0.006,-2.15588 -0.10657,-2.755077 -0.64263,-3.836075 -0.69836,-1.408267 -1.84867,-2.313522 -3.51953,-2.769749 -1.24031,-0.338665 -5.5106,-0.159598 -7.37211,0.309136 -1.461372,0.367978 -2.780101,1.585323 -2.951065,2.724186 -0.338831,2.257102 -0.352448,2.780534 -0.07944,3.053545 0.208315,0.208316 0.212874,0.378726 0.01541,0.576188 -0.185175,0.185176 -0.202562,0.701788 -0.0512,1.521354 0.595182,3.222712 2.990127,4.309816 9.267235,4.206545 3.13545,-0.05158 3.39668,-0.0963 4.02722,-0.689382 z M 98.084721,58.006657 c -0.422153,-1.100114 -0.02223,-2.756485 0.665549,-2.756485 0.414232,0 0.779679,1.769431 0.511258,2.47543 -0.2952,0.776436 -0.928657,0.927723 -1.176807,0.281055 z m 7.234529,0.0057 c -0.47029,-0.566664 -0.45878,-2.205928 0.0176,-2.500321 0.65835,-0.406883 1.08602,0.254056 1.00057,1.546335 -0.0854,1.291254 -0.45263,1.635372 -1.01813,0.953986 z"
       id="path1572891" /><path
       style="fill:#ffffff"
       d="m -90.406494,83.378227 c -0.136232,-0.263504 -0.327334,-1.210288 -0.42467,-2.103963 -0.229596,-2.107996 0.09223,-2.474666 2.176792,-2.480077 1.888001,-0.0049 2.660112,-0.392956 3.397515,-1.707554 0.919028,-1.638386 1.02376,-3.201746 0.319606,-4.770837 -0.441266,-0.98329 -0.63194,-2.032486 -0.742714,-4.086831 L -85.829,65.465051 -89.136292,64.890412 c -1.81901,-0.316052 -3.783541,-0.708736 -4.365625,-0.872632 -0.582083,-0.163895 -1.421474,-0.298655 -1.865312,-0.299467 -1.037159,-0.0019 -1.441979,-0.423087 -1.441979,-1.500291 0,-1.578991 1.881427,-1.779535 2.267402,-0.241685 0.18108,0.721478 0.737744,0.901423 5.405514,1.747361 1.67349,0.303286 3.191537,0.600671 3.373438,0.660856 0.183087,0.06058 0.330729,-0.104399 0.330729,-0.369556 0,-0.332463 -0.335885,-0.579616 -1.098025,-0.807959 -3.260509,-0.976872 -5.251975,-3.849585 -5.251975,-7.576033 0,-0.918116 0.126637,-2.004475 0.281416,-2.414131 0.59342,-1.570618 2.279439,-2.812036 5.139449,-3.784183 0.729305,-0.247899 1.300001,-0.558426 1.268212,-0.69006 -0.676392,-2.800884 -1.59561,-5.661651 -1.819424,-5.662366 -0.600325,-0.0019 -1.20283,-1.008506 -1.11795,-1.867724 0.101598,-1.02846 0.674246,-1.450038 1.640302,-1.207573 1.016089,0.255022 1.425462,1.270113 0.86016,2.132873 -0.417722,0.637524 -0.394739,0.799891 0.508882,3.595069 0.77419,2.394808 1.027462,2.902862 1.392136,2.792574 2.470825,-0.747253 4.995698,-0.876754 6.08131,-0.31191 1.627838,0.846963 2.961723,3.226028 3.497625,6.238225 0.611192,3.435389 -0.341997,5.99792 -2.622441,7.050115 -0.947121,0.437001 -1.412105,0.892006 -0.911569,0.892006 0.786247,0 4.870056,-2.959316 6.505537,-4.714212 1.371465,-1.471602 1.451757,-1.673753 0.859896,-2.164954 -0.509492,-0.422841 -0.504229,-1.051904 0.015,-1.793212 0.727649,-1.038864 1.969372,-0.501248 1.969372,0.85266 0,0.8041 -1.135412,2.821146 -2.347978,4.171156 -1.216814,1.35474 -4.211178,3.497206 -5.817989,4.162769 -0.792418,0.328231 -0.829171,0.403593 -0.636965,1.306123 0.112185,0.526788 0.203974,2.148813 0.203974,3.604501 v 2.646705 l 0.957907,-0.09154 c 1.874323,-0.179115 2.648193,0.603243 4.090238,4.135101 0.237598,0.581925 0.286425,0.553338 1.242736,-0.727604 1.036607,-1.388494 1.426442,-1.605633 1.682879,-0.937368 0.223844,0.583327 -2.234374,4.415133 -2.766675,4.312621 -0.268302,-0.05167 -0.75024,-0.963967 -1.300325,-2.461485 -0.480712,-1.308663 -1.073129,-2.528215 -1.316482,-2.710116 -0.847399,-0.633414 -2.308043,-0.393027 -3.78496,0.622913 -1.809914,1.245002 -2.918513,1.692191 -4.195007,1.692191 h -1.041061 l -0.545583,1.785937 c -0.300071,0.982266 -0.744162,2.066712 -0.98687,2.409882 -0.600478,0.849027 -2.376401,1.612158 -3.768134,1.619203 l -1.148003,0.0058 0.08967,1.75959 c 0.09173,1.800008 -0.269962,2.491232 -0.783657,1.497633 z m 10.936481,-11.051348 c 1.318302,-1.005518 1.77573,-2.217505 1.801644,-4.773583 0.01982,-1.955183 -0.581354,-4.676151 -1.104608,-4.999541 -0.09876,-0.06104 -1.07192,0.111405 -2.162583,0.3832 -1.090663,0.271794 -2.297313,0.557429 -2.681444,0.634744 -0.873677,0.175845 -1.033829,0.580176 -1.210281,3.055555 -0.162194,2.275366 0.225659,4.51244 1.004343,5.792883 0.521452,0.857459 0.581757,0.881068 1.958872,0.766867 1.026867,-0.08516 1.690715,-0.32366 2.394057,-0.860125 z m -1.382482,-10.479525 c 2.540507,-0.637178 4.542549,-1.65856 5.320616,-2.714421 0.458223,-0.621822 0.546779,-1.110976 0.5269,-2.910416 -0.0333,-3.014165 -1.115763,-5.873771 -2.566353,-6.77968 -1.280877,-0.799921 -6.600015,0.01898 -9.050047,1.393287 -1.488465,0.834932 -1.753356,1.496403 -1.664352,4.156138 0.0646,1.9304 0.201764,2.511988 0.95131,4.033584 1.062204,2.156297 2.284847,3.186085 3.962391,3.337383 0.187168,0.01688 1.320958,-0.215263 2.519535,-0.515875 z m -2.899008,-4.167245 c -0.852757,-0.554178 -1.161621,-2.341114 -0.451737,-2.613522 0.587376,-0.225398 1.152365,0.595219 1.152365,1.673748 0,0.911578 -0.242824,1.237286 -0.700628,0.939774 z m 5.73702,-2.14796 c -0.150641,-0.281475 -0.273892,-0.99585 -0.273892,-1.5875 0,-1.399206 0.661885,-1.455948 1.226293,-0.105128 0.619208,1.481972 -0.244056,3.016183 -0.952401,1.692628 z m -9.40134,5.389475 c -1.309826,-1.715966 -2.050168,-4.335358 -1.940312,-6.864986 l 0.08755,-2.016026 -0.578357,0.673781 c -0.680325,0.792572 -1.007064,2.59729 -0.763857,4.219108 0.224567,1.497521 1.628353,3.824148 2.770404,4.591655 1.338495,0.899525 1.450427,0.740412 0.424571,-0.603532 z"
       id="path1572890" /><path
       style="fill:#ffffff"
       d="m -10.092087,83.759024 c -0.06755,-0.181901 -0.0039,-1.11532 0.1413849,-2.074265 0.3319002,-2.190232 0.1213983,-3.329666 -0.8672709,-4.694483 -0.645287,-0.890794 -1.074288,-1.167482 -2.486434,-1.603649 -0.938628,-0.289913 -2.341114,-0.860643 -3.116637,-1.26829 -0.775522,-0.407647 -1.492353,-0.779218 -1.592957,-0.825713 -0.100604,-0.0465 -0.374275,0.28551 -0.608158,0.737789 -0.556651,1.076444 -1.869042,1.855034 -3.128924,1.856269 -1.185696,0.0012 -1.86747,-0.310062 -2.977431,-1.359169 l -0.812013,-0.767494 -0.64562,0.99768 c -0.75048,1.15972 -1.143001,1.266476 -1.236224,0.336222 -0.07599,-0.758299 1.571129,-3.175 2.163945,-3.175 0.204998,0 0.629064,0.414766 0.942369,0.921703 1.316107,2.129506 3.128932,2.619624 4.344786,1.174663 0.376738,-0.447728 0.698554,-1.132337 0.715146,-1.521354 0.156491,-3.669028 0.875644,-5.904357 2.465834,-7.664507 l 0.945528,-1.046587 -1.257744,-0.531878 c -0.691759,-0.292534 -1.537293,-0.616763 -1.878963,-0.720511 -0.877114,-0.266335 -2.795717,0.52899 -3.609683,1.496334 -0.407182,0.483908 -0.829198,0.741567 -1.065858,0.650752 -0.643933,-0.2471 -0.446881,-1.06833 0.468114,-1.950901 1.784744,-1.721499 3.507937,-1.827416 6.365571,-0.391261 1.094146,0.549883 2.108886,0.959944 2.254978,0.911246 0.146092,-0.0487 -0.23766,-0.591821 -0.852781,-1.206943 -2.036649,-2.036649 -2.292925,-5.167274 -0.701407,-8.568269 2.129039,-4.549653 3.879835,-5.246958 8.1499064,-3.245935 1.2449318,0.583395 2.2799223,1.029879 2.299979,0.992187 0.020057,-0.03769 0.8347234,-0.974959 1.8103704,-2.082816 0.9756471,-1.107857 1.7739037,-2.250264 1.7739037,-2.53868 0,-0.652367 0.7953847,-1.400159 1.48927094,-1.400159 0.71660833,0 1.15656235,0.503235 1.15656235,1.322917 0,0.868182 -0.4457653,1.320899 -1.30968748,1.330112 -0.50875521,0.0054 -1.07829211,0.484973 -2.31576071,1.949861 l -1.6410731,1.942666 1.0514807,0.474151 c 2.3341004,1.052533 4.6613975,4.678166 4.41367583,6.875947 -0.318687,2.827382 -2.96786703,6.774671 -5.31864193,7.924798 -1.4657571,0.717129 -1.9404277,0.718169 -3.677389,0.0081 -0.7043358,-0.287948 -0.6042623,0.965403 0.1322917,1.656862 0.8618223,0.809058 2.8298641,1.637504 3.9060097,1.644232 0.7132607,0.0045 0.9901963,-0.132657 1.1906249,-0.589502 0.3130564,-0.713561 1.3941088,-0.805073 1.8055275,-0.152839 0.1975083,0.313116 0.1918982,0.633872 -0.01919,1.097159 -0.6533358,1.433916 -4.6936468,1.092569 -6.6720482,-0.563691 l -0.9135549,-0.764801 -1.123475,2.298232 c -0.6179108,1.264028 -1.3063348,2.449993 -1.5298318,2.635479 -0.35512,0.294723 -0.300417,0.408643 0.433845,0.903489 0.462111,0.311434 1.1449156,1.159094 1.5173446,1.883689 0.5555969,1.080965 0.6771436,1.687032 0.6771436,3.376429 0,1.72841 0.063719,2.032038 0.396875,1.891153 1.427574,-0.603691 1.854696,-0.717485 2.0310647,-0.541116 0.3469497,0.346949 -0.30492,1.079439 -1.5085768,1.69515 -1.3084225,0.669302 -1.994899,0.752764 -2.1761981,0.264583 z m -1.77423,-10.575247 c 1.25613,-1.734038 1.8848801,-3.357687 2.033061,-5.250063 l 0.1359553,-1.736249 -1.8338383,-1.108022 c -1.008611,-0.609412 -2.034698,-1.108022 -2.280192,-1.108022 -1.43575,0 -4.078637,3.945373 -4.340138,6.479074 -0.136075,1.318441 -0.105989,1.401388 0.722201,1.991111 0.996578,0.709627 3.614369,1.833049 4.292878,1.842285 0.253749,0.0035 0.825281,-0.496097 1.270073,-1.110114 z m 7.683743,-7.416418 c 2.7373917,-2.098038 4.67646017,-6.54179 3.67285094,-8.417051 C -0.85551775,56.704185 -2.24522,55.994467 -4.5636422,55.27998 c -2.6855838,-0.827637 -3.7591707,-0.756043 -4.7695346,0.318066 -2.4925612,2.64982 -3.4158022,7.024153 -1.7889102,8.475888 0.787812,0.702994 4.5483328,2.55332 5.1892536,2.55332 0.3455759,0 1.1331927,-0.386953 1.7502594,-0.859895 z m 0.2421142,-3.161325 c 0,-0.663649 1.3311023,-2.328779 1.8616218,-2.328779 0.6835683,0 0.656705,0.511599 -0.084776,1.614518 -0.6128602,0.911601 -1.7768459,1.379503 -1.7768458,0.714261 z m -4.7615109,-2.130342 c 0.00297,-0.99453 1.7890974,-2.729879 2.2920665,-2.226909 0.2127957,0.212795 -0.1442549,1.122507 -0.7356639,1.874362 -0.5561282,0.707002 -1.5581413,0.933973 -1.5564026,0.352547 z M -12.51349,58.961821 c 0.520451,-1.386027 2.436763,-4.453426 3.1452701,-5.034566 0.6959924,-0.570875 2.7859654,-0.425229 5.2841196,0.368239 1.1579248,0.367782 2.1463164,0.627696 2.1964258,0.577587 0.2938159,-0.293816 -2.2246402,-1.835342 -4.7761112,-2.923417 -3.6891343,-1.573232 -4.7549463,-1.730884 -5.9967663,-0.887023 -2.003724,1.361601 -3.450741,4.184512 -3.450741,6.73187 0,1.541295 0.324956,2.272967 1.646325,3.706879 l 1.1318,1.228196 0.184895,-1.284829 c 0.101693,-0.706656 0.387345,-1.823977 0.634783,-2.482936 z"
       id="path1572889" /><path
       style="fill:#ffffff"
       d="m 94.595654,139.6825 c -2.229605,-1.35961 -2.15101,-5.00866 0.136152,-6.32131 l 0.731038,-0.41955 0.172306,-4.7569 c 0.09477,-2.6163 0.172305,-7.69233 0.172305,-11.28007 v -6.52316 l -0.927852,-0.44246 c -1.303257,-0.62148 -1.980363,-1.84794 -1.981575,-3.58928 -8.99e-4,-1.28996 0.08999,-1.51064 0.991198,-2.40654 0.545703,-0.54249 1.159284,-1.04059 1.363512,-1.10688 0.293992,-0.0954 0.392356,-1.05711 0.472307,-4.617635 l 0.100981,-4.497098 -0.937138,-0.44689 c -2.717256,-1.295769 -2.608652,-5.157489 0.187505,-6.667288 0.902783,-0.487462 1.051909,-0.496926 2.084506,-0.132291 1.5904,0.561608 2.213038,1.52389 2.241924,3.464874 0.03305,2.220814 0.305149,2.362612 1.985247,1.034571 1.7242,-1.362903 3.3521,-2.202418 5.41089,-2.790431 0.86691,-0.247598 1.84366,-0.695168 2.17056,-0.994598 0.48764,-0.446667 0.70142,-0.492352 1.19062,-0.254435 0.32795,0.159492 1.21773,0.362056 1.97729,0.450142 1.34428,0.155897 1.40938,0.131792 2.4474,-0.906222 1.23654,-1.236545 2.25679,-1.387168 3.64848,-0.538642 0.92661,0.564963 1.91321,1.961673 1.91482,2.710775 6.7e-4,0.311176 0.57425,0.720313 1.76977,1.26239 6.07728,2.755569 10.45255,9.910469 11.09976,18.151508 0.15741,2.00419 0.21918,2.17707 0.92745,2.59545 2.17809,1.28663 2.14489,5.20767 -0.0547,6.45904 l -0.77337,0.43997 -0.002,7.60746 -0.002,7.60746 1.05309,0.9514 c 1.28061,1.15695 1.70128,2.4241 1.29977,3.91518 -0.66894,2.48426 -3.25173,3.36114 -5.10562,1.7334 -1.64691,-1.44601 -1.84348,-3.43989 -0.51366,-5.21024 0.35441,-0.47181 0.93669,-0.9312 1.29395,-1.02087 l 0.64956,-0.16303 v -7.61829 -7.6183 l -0.96795,-0.50231 c -2.62594,-1.36275 -2.54633,-5.40262 0.13147,-6.6716 l 0.88331,-0.41859 -0.14848,-2.38125 c -0.33904,-5.43709 -2.316,-9.937366 -5.98377,-13.621145 -2.13181,-2.141121 -5.52757,-4.19198 -5.76442,-3.481412 -0.25619,0.768555 -1.70918,2.12589 -2.44985,2.288569 -1.70569,0.374631 -3.95656,-1.60592 -3.95656,-3.481388 V 88.58767 h -1.43959 c -0.79178,0 -1.52011,0.130274 -1.61852,0.289499 -0.0984,0.159224 -0.48475,0.231036 -0.85854,0.15958 -0.99147,-0.189531 -3.31617,0.488167 -5.36163,1.56303 -3.86691,2.032004 -7.141646,6.68333 -7.338456,10.423311 -0.08845,1.68084 -0.07221,1.72992 0.71697,2.16733 2.474536,1.37153 2.486886,5.3747 0.02092,6.77783 l -0.786556,0.44754 -0.0017,11.16421 -0.0017,11.16421 0.717727,0.34517 c 2.292985,1.10273 2.630705,5.2202 0.547829,6.6791 -0.800897,0.56097 -2.544288,0.51857 -3.535691,-0.086 z m 2.799301,-43.930814 c 0,-0.134375 0.418397,-0.792447 0.929771,-1.462384 0.751033,-0.983906 0.866487,-1.285811 0.600578,-1.570468 -0.271723,-0.290881 -0.480228,-0.231891 -1.194346,0.337904 -0.733152,0.584982 -0.865155,0.861875 -0.865162,1.814786 -4e-6,0.618463 0.119055,1.124479 0.264576,1.124479 0.145521,0 0.264583,-0.109943 0.264583,-0.244317 z"
       id="path1572888" /><path
       style="fill:#ffffff"
       d="m -84.588151,139.64547 c -2.891509,-1.76291 -1.608798,-6.6078 1.749449,-6.6078 0.755579,0 0.822719,-0.1294 4.280846,-8.25031 2.829731,-6.64521 3.454031,-8.33101 3.208952,-8.6651 -0.564989,-0.77021 -1.087388,-2.11348 -1.087388,-2.79605 0,-1.83617 1.565128,-3.5677 3.305477,-3.65692 0.863633,-0.0443 0.963484,-0.14736 1.583412,-1.63475 1.082908,-2.59821 3.236848,-7.9477 4.81346,-11.954617 l 1.47652,-3.752539 -0.555398,-0.706073 c -0.73017,-0.928262 -0.943255,-2.174061 -0.59382,-3.471765 0.383861,-1.425549 1.28258,-2.203926 2.798463,-2.423736 l 1.247188,-0.180848 2.175,-5.423958 c 1.19625,-2.983177 2.313982,-5.681078 2.483848,-5.995336 0.243002,-0.44956 0.224981,-0.772103 -0.08453,-1.512856 -0.837913,-2.00541 -0.186341,-4.105338 1.55406,-5.008526 2.799359,-1.452738 5.738983,1.632304 4.592724,4.819918 -0.385484,1.071985 -0.385562,1.242273 -9.14e-4,1.986102 0.231397,0.447472 1.406308,3.131644 2.610914,5.964827 l 2.190192,5.151241 0.970466,0.06208 c 1.198358,0.07666 2.107781,0.650942 2.782076,1.756817 0.86264,1.41477 0.554551,3.663117 -0.637521,4.652449 -0.344459,0.285876 -0.205934,0.732442 1.060982,3.420313 0.801442,1.700329 1.739775,3.746351 2.085184,4.546716 0.345409,0.800371 1.44616,3.235771 2.446115,5.412021 1.701484,3.70301 1.874259,3.97136 2.693679,4.18369 2.822641,0.73142 4.04571,3.83735 2.391929,6.07421 l -0.57078,0.77202 3.232867,7.58789 c 1.778077,4.17333 3.347385,7.9153 3.487351,8.31548 0.209615,0.59932 0.41157,0.72761 1.145436,0.72761 0.618513,0 1.175808,0.2501 1.82251,0.81792 3.140934,2.75777 0.09381,7.81788 -3.567639,5.92447 -1.737976,-0.89874 -2.197661,-3.64 -0.924904,-5.51551 l 0.653934,-0.96363 -3.498205,-8.20515 c -2.458954,-5.76755 -3.61611,-8.19499 -3.895081,-8.17095 -1.217661,0.10493 -1.751302,-0.1128 -2.6868,-1.09621 -0.559551,-0.58821 -1.017366,-1.24305 -1.017366,-1.45521 0,-0.32645 -0.911659,-0.38573 -5.932103,-0.38573 h -5.932102 l -0.172766,0.7866 c -0.206697,0.94108 -1.399688,2.01112 -2.515431,2.25618 -1.216095,0.2671 -2.657281,-0.57076 -3.306973,-1.92257 l -0.529167,-1.10104 -6.278813,-0.01 -6.278813,-0.01 -0.158739,0.63246 c -0.267982,1.06773 -1.535894,2.05949 -2.817646,2.20396 l -1.154441,0.13012 -2.486158,5.99121 c -1.367387,3.29516 -2.94028,6.98478 -3.495318,8.19914 l -1.009159,2.20794 0.527709,0.67088 c 0.920915,1.17075 1.165344,2.62738 0.662034,3.94528 -0.799734,2.09407 -2.943463,2.83602 -4.844806,1.67681 z m 27.749422,-27.82172 c 1.150686,-2.55691 4.593149,-2.56194 5.802437,-0.008 l 0.396875,0.83802 5.858296,0.006 5.858296,0.006 0.180588,-0.7276 c 0.09932,-0.40018 0.423999,-0.98843 0.721501,-1.30721 0.676898,-0.72531 0.836651,-0.27396 -3.166212,-8.9454 -1.746539,-3.783537 -3.361372,-7.325646 -3.588518,-7.87135 -0.363092,-0.872306 -0.522201,-0.992187 -1.316853,-0.992187 -2.521679,0 -4.013147,-3.548494 -2.455152,-5.84129 l 0.636738,-0.937044 -2.550884,-5.875741 c -2.0326,-4.68192 -2.63235,-5.837195 -2.951842,-5.686024 -0.528324,0.24998 -2.139436,0.24273 -2.685494,-0.01209 -0.363005,-0.169394 -0.813424,0.759215 -2.80476,5.782449 -2.307099,5.819762 -2.359644,6.00035 -1.911621,6.569919 1.913604,2.432752 0.691383,5.866412 -2.204345,6.192802 -1.03386,0.116531 -1.209167,0.232579 -1.453175,0.961954 -0.412144,1.231958 -4.90515,12.219972 -5.838093,14.277532 l -0.807397,1.78068 0.648318,0.95535 c 0.356574,0.52544 0.648317,1.11732 0.648317,1.3153 0,0.29347 1.163948,0.35995 6.302251,0.35995 h 6.302252 z"
       id="path1572887" /><path
       id="path1572886"
       style="fill:#ffffff"
       d="m 57.929575,140.30707 c -0.387158,-0.21027 -0.922939,-0.84843 -1.190625,-1.41812 -0.409698,-0.87192 -0.647062,-1.06196 -1.500247,-1.20112 -4.594874,-0.7495 -10.365538,-5.37979 -12.956261,-10.39591 -1.391057,-2.69334 -2.350105,-5.46095 -2.832923,-8.17523 -0.288291,-1.62069 -0.440404,-1.94479 -1.093978,-2.33086 -0.829682,-0.49011 -1.384116,-1.39703 -1.672422,-2.73568 -0.267623,-1.24262 0.70981,-3.17833 1.844237,-3.65232 0.756547,-0.31611 0.872671,-0.50701 1.030047,-1.69337 0.09755,-0.73541 0.419961,-2.12251 0.716458,-3.08246 0.534513,-1.73055 0.534713,-1.75017 0.02357,-2.31224 -0.76917,-0.84581 -1.110808,-1.62774 -1.110808,-2.54236 0,-2.085473 1.610003,-3.795311 3.439583,-3.652869 0.822528,0.06404 1.036426,-0.06685 1.913547,-1.170968 1.573412,-1.980598 3.377129,-3.607701 5.232748,-4.720376 1.842584,-1.104858 4.443909,-2.10635 5.471138,-2.10635 0.368374,0 0.686617,-0.191569 0.769193,-0.463021 0.39001,-1.282082 1.047143,-2.167579 2.010287,-2.708896 0.939569,-0.528068 1.184249,-0.562981 2.075046,-0.296092 1.150791,0.344785 2.328111,1.595962 2.551158,2.7112 0.111955,0.559775 0.304177,0.756809 0.738327,0.756809 0.851039,0 3.351811,0.905559 5.155228,1.866771 5.819632,3.101831 10.305463,10.058382 11.026938,17.100382 0.155812,1.52082 0.243413,1.70384 1.040661,2.17423 1.823914,1.07613 2.382678,3.11082 1.387478,5.05237 -0.826887,1.61318 -2.204097,2.31744 -3.67189,1.87768 -1.040692,-0.3118 -2.133613,-1.45911 -2.481771,-2.60529 l -0.180831,-0.59531 h -6.435016 -6.435016 l -0.170735,0.91009 c -0.287264,1.53125 -2.221591,2.79808 -3.704223,2.42596 -0.993805,-0.24943 -2.242741,-1.43961 -2.48259,-2.3658 l -0.217,-0.83796 -6.377409,-0.0708 -6.377408,-0.0708 -0.3043,0.92204 c -0.317514,0.96208 -1.624248,2.26227 -2.273652,2.26227 -0.901956,0 0.06873,4.4805 1.767991,8.16068 2.117044,4.585 5.072587,7.74098 9.100226,9.71736 1.309688,0.64267 2.859453,1.23957 3.443923,1.32645 1.032579,0.15348 1.072589,0.13053 1.412819,-0.81035 0.445684,-1.23252 1.65373,-1.98768 3.181808,-1.98899 0.987302,-8.4e-4 1.291651,0.13926 2.050521,0.94389 0.490126,0.51969 0.891137,1.18975 0.891137,1.48903 0,0.48664 0.111825,0.52626 1.058264,0.37492 2.634245,-0.42123 5.865145,-1.98177 8.007753,-3.86777 1.248889,-1.09931 1.251746,-1.10571 1.103134,-2.46901 -0.183386,-1.6823 0.422631,-2.94779 1.753414,-3.6615 1.156307,-0.62013 2.021373,-0.6103 3.079694,0.035 2.386736,1.45528 2.170669,5.47027 -0.351086,6.52393 -1.04153,0.43518 -2.33015,0.29124 -3.047417,-0.34041 -0.387173,-0.34095 -0.558809,-0.26836 -1.567313,0.66286 -2.123376,1.96065 -5.558625,3.70706 -8.448943,4.29526 -1.302522,0.26507 -1.502991,0.39811 -1.910618,1.26794 -0.797731,1.70228 -2.837542,2.3782 -4.481846,1.48512 z m -0.992439,-28.63451 c 0.445872,-0.68988 0.986927,-1.11184 1.775771,-1.38491 1.054213,-0.36494 1.203611,-0.35557 2.110676,0.13229 0.536887,0.28876 1.216254,0.90739 1.509703,1.37472 l 0.533545,0.84971 6.482291,0.004 6.482292,0.004 0.396875,-0.85417 c 0.218281,-0.46979 0.843359,-1.14201 1.389062,-1.49381 1.130609,-0.72888 1.151101,-0.8604 0.571969,-3.67099 -1.595082,-7.741092 -6.778731,-13.87967 -13.43213,-15.906593 -2.130657,-0.649094 -2.287234,-0.66319 -2.287234,-0.20592 0,0.621509 -1.613666,2.015533 -2.532671,2.18794 -1.48252,0.278122 -2.662824,-0.510954 -3.736902,-2.498257 -0.02853,-0.05278 -0.683369,0.05119 -1.455208,0.231048 -3.174327,0.739687 -7.404025,3.592123 -9.202362,6.205917 l -0.777995,1.130776 0.518194,1.016408 c 0.285007,0.559025 0.518194,1.413861 0.518194,1.899641 0,1.73392 -1.483049,3.5028 -2.936789,3.5028 -0.935041,0 -1.145681,0.38133 -1.850954,3.35091 -0.405873,1.70894 -0.46855,2.34942 -0.237451,2.42645 0.571409,0.19047 2.086654,1.65471 2.252241,2.17643 0.155282,0.48925 0.464547,0.51287 6.715204,0.51287 h 6.552425 z" /><path
       style="fill:#ffffff"
       d="m 169.41693,142.01591 c -1.0541,-0.22349 -1.86689,-0.90839 -2.30899,-1.94568 -0.29973,-0.70324 -0.53083,-0.81343 -2.5731,-1.2269 -2.35469,-0.47672 -5.89168,-1.98528 -8.05136,-3.43398 -0.70239,-0.47116 -2.0771,-1.63722 -3.05492,-2.59124 -1.74994,-1.70736 -1.7985,-1.73351 -3.09229,-1.66484 -1.17364,0.0623 -1.41978,-0.0268 -2.29781,-0.83142 -0.85468,-0.78325 -0.99851,-1.08866 -1.09913,-2.33384 -0.0986,-1.22052 -0.0136,-1.58225 0.57426,-2.44298 0.68068,-0.99663 0.68432,-1.02711 0.26881,-2.24896 -1.48058,-4.35375 -1.97732,-9.81223 -1.21155,-13.31315 0.31229,-1.42771 0.29749,-1.53347 -0.34777,-2.48432 -1.62053,-2.38797 -0.14943,-5.93321 2.47058,-5.95393 0.9087,-0.007 1.01601,-0.10832 2.14713,-2.023422 3.12254,-5.286791 9.07679,-9.714477 14.42922,-10.729824 1.72184,-0.326629 1.78434,-0.366915 2.31254,-1.490621 1.3532,-2.87881 4.98958,-2.831988 6.04177,0.07779 0.29319,0.810825 0.43043,0.894556 1.71324,1.045326 3.05266,0.35878 7.73609,2.529372 10.38822,4.814541 1.03164,0.888905 1.3092,0.993808 2.68438,1.01457 1.7261,0.02606 2.47158,0.493788 3.08069,1.932888 1.35892,3.210663 -1.53579,6.451692 -4.42699,4.956592 -1.6074,-0.83122 -2.35005,-3.445011 -1.50549,-5.298618 0.29367,-0.644549 0.25328,-0.763151 -0.46303,-1.359533 -2.69865,-2.246847 -6.45112,-4.09118 -9.46381,-4.651449 -1.47329,-0.273987 -1.61819,-0.257455 -1.88251,0.214781 -0.1575,0.281389 -0.6614,0.90143 -1.11979,1.377869 -0.70053,0.728104 -1.0243,0.866252 -2.03023,0.866252 -1.28817,0 -2.63926,-0.850441 -2.96086,-1.863703 -0.21668,-0.682715 -1.16154,-0.671361 -3.47417,0.04175 -4.91065,1.514223 -9.473,5.125902 -12.21101,9.666561 l -1.13678,1.88522 0.698,1.02207 c 0.59298,0.86828 0.68089,1.23391 0.58428,2.43005 -0.0962,1.19166 -0.26234,1.55661 -1.08097,2.37524 -0.78413,0.78414 -1.16351,0.96725 -2.00396,0.96725 h -1.03672 l -0.2878,1.93505 c -0.56481,3.79749 -0.20234,7.85219 1.0341,11.56769 0.54998,1.65267 0.60856,1.72282 1.43866,1.72282 2.08317,0 3.74807,2.33745 3.15277,4.42633 -0.15637,0.5487 -0.36993,1.19811 -0.47458,1.44314 -0.37469,0.87735 3.61785,4.34704 6.86437,5.96545 1.35241,0.67419 4.13707,1.58702 5.75721,1.88726 l 1.25929,0.23336 0.50346,-1.13815 c 0.92015,-2.08016 3.23048,-2.61966 4.90861,-1.14624 0.51568,0.45278 1.01238,1.12115 1.10377,1.48528 0.16073,0.6404 0.21766,0.65623 1.74058,0.48393 3.23712,-0.36623 7.35632,-2.06224 9.57957,-3.94421 1.01134,-0.85611 1.03844,-0.92341 0.98392,-2.44398 -0.069,-1.9235 0.5788,-3.12658 2.00406,-3.72209 1.32823,-0.55496 2.72207,-0.13334 3.67068,1.11036 1.42029,1.86208 0.98242,4.19701 -1.0155,5.41516 -1.02425,0.62449 -1.91413,0.66588 -2.92952,0.13627 -0.71726,-0.37411 -0.79413,-0.34851 -2.11667,0.70496 -2.52379,2.01034 -8.17372,4.17628 -10.91037,4.18257 -0.67983,0.002 -0.85898,0.14631 -1.13877,0.92005 -0.54596,1.50983 -2.05896,2.31999 -3.68772,1.97465 z"
       id="path1572885" /><path
       style="fill:#ffffff"
       d="m 212.60642,160.27166 c -2.00876,-0.5838 -2.88342,-3.20605 -1.66265,-4.98469 0.34039,-0.49594 0.93692,-1.13725 1.32563,-1.42514 0.86032,-0.63717 2.5919,-0.69116 3.48111,-0.10852 0.62791,0.41142 0.64232,0.39895 1.7169,-1.48528 1.38462,-2.42787 2.16659,-4.19311 3.88913,-8.77934 1.34111,-3.5707 1.37444,-3.72324 0.92497,-4.23333 -1.44193,-1.63646 -1.3985,-4.15619 0.093,-5.394 0.3462,-0.28732 0.29593,-0.54952 -0.40215,-2.0974 -0.4388,-0.97296 -1.75009,-3.97168 -2.91397,-6.66381 -3.94059,-9.11485 -4.15734,-9.525 -5.03367,-9.525 -1.67424,0 -3.35171,-1.47019 -3.57474,-3.13301 -0.18532,-1.38165 0.0322,-2.1991 0.84108,-3.16037 l 0.65457,-0.7779 -3.06195,-6.98155 c -1.68408,-3.83985 -3.23035,-7.368499 -3.43617,-7.841441 -0.28047,-0.644485 -0.54166,-0.859896 -1.04266,-0.859896 -1.01106,0 -2.57474,-0.910277 -3.09476,-1.80158 -1.40268,-2.404169 0.66951,-5.835655 3.32783,-5.51078 1.84356,0.225304 2.96125,1.819331 2.7581,3.933566 -0.07,0.728281 -0.36585,1.622469 -0.67537,2.041119 l -0.55084,0.745044 3.30419,7.506211 c 1.81731,4.128417 3.4151,7.774097 3.55067,8.101527 0.16523,0.39909 0.47069,0.59531 0.92674,0.59531 1.0109,0 2.17976,0.70065 2.63389,1.57884 0.5624,1.08756 0.51113,3.13268 -0.10381,4.14115 l -0.50319,0.82519 3.64265,8.30293 c 2.00346,4.56661 3.79996,8.63627 3.99222,9.04368 0.28347,0.60069 0.49669,0.72576 1.12762,0.66146 0.76518,-0.078 0.8315,-0.21923 4.00716,-8.535 l 3.22911,-8.4557 -0.61604,-0.90778 c -1.1817,-1.74134 -0.58661,-4.18314 1.29977,-5.33328 0.47428,-0.28917 1.17611,-0.52621 1.55963,-0.52675 0.75713,-0.001 0.33908,0.90504 5.9362,-12.866638 L 241.6756,92.622 241.05722,91.753559 c -0.92347,-1.296894 -1.01598,-3.295622 -0.20758,-4.484951 0.34475,-0.507203 0.9209,-1.070995 1.28034,-1.25287 2.92281,-1.478961 5.99039,2.261543 4.22682,5.154038 -0.62392,1.023309 -1.98357,1.913441 -2.92484,1.914821 -0.53893,7.91e-4 -0.74643,0.200356 -1.03266,0.993177 -0.19702,0.545703 -1.71884,4.308016 -3.38184,8.360696 l -3.02363,7.36851 0.53443,0.56899 c 0.66873,0.71198 1.05577,2.41025 0.81199,3.56284 -0.33942,1.60474 -2.24386,3.04889 -3.68495,2.79433 -0.6344,-0.11207 -0.7289,0.0644 -2.31575,4.32353 -0.90989,2.44221 -2.35584,6.27791 -3.2132,8.52378 l -1.55884,4.08341 0.53062,0.7177 c 1.61016,2.17785 0.37271,5.42475 -2.20412,5.78333 l -1.06941,0.14882 -1.26501,3.46981 c -1.47767,4.05315 -2.59792,6.56708 -4.2253,9.48197 -0.93689,1.67812 -1.17872,2.37418 -1.19498,3.43959 -0.0256,1.67372 -0.79365,2.83105 -2.2713,3.42228 -1.18634,0.47469 -1.13595,0.47147 -2.26159,0.14432 z"
       id="path1572884" /><path
       style="fill:#ffffff"
       d="m -102.87671,183.60655 c -0.36093,-0.67439 -0.36645,-3.08639 -0.009,-3.75503 0.21582,-0.40325 0.55997,-0.51177 1.62295,-0.51177 1.666169,0 3.243672,-0.45277 3.828302,-1.09878 0.243099,-0.26862 0.586927,-1.05402 0.764063,-1.74533 0.317659,-1.23974 0.310055,-1.2703 -0.555792,-2.23413 -1.112576,-1.23847 -1.54374,-2.71551 -1.549073,-5.30666 -0.0049,-2.37206 -0.02742,-2.38631 -2.38146,-1.50555 -1.01325,0.37911 -1.78127,0.91386 -2.52347,1.75704 -1.11994,1.27233 -1.23546,1.53134 -0.80232,1.79903 0.36572,0.22603 0.3322,1.28175 -0.0529,1.66688 -0.49152,0.49151 -1.48505,0.37527 -1.79851,-0.21043 -0.22775,-0.42556 -0.12081,-0.82317 0.5515,-2.05052 1.57838,-2.88145 3.36051,-4.22393 5.963895,-4.49263 1.752744,-0.1809 2.031704,-0.86642 0.352573,-0.86642 -1.792448,0 -3.778868,-1.3575 -5.088938,-3.47774 -1.25985,-2.03894 -1.86528,-5.61318 -1.23429,-7.28681 0.36504,-0.96824 1.72447,-2.38054 2.89419,-3.00673 1.79567,-0.9613 1.7905,-0.79557 0.10162,-3.25902 -0.92848,-1.35432 -1.74125,-2.27356 -2.01375,-2.27757 -0.6311,-0.009 -1.34759,-1.17508 -1.13461,-1.84612 0.0947,-0.29832 0.40671,-0.66794 0.6934,-0.82136 1.16026,-0.62096 2.46141,0.67632 1.84101,1.83554 -0.26562,0.49633 -0.10351,0.82842 1.34021,2.74545 0.90331,1.19945 1.65979,2.20834 1.68107,2.24197 0.0213,0.0336 1.221648,-0.35212 2.667475,-0.85723 2.884714,-1.00779 5.162534,-1.20333 6.41223,-0.55046 2.173703,1.1356 3.746939,4.44778 3.754033,7.90347 0.005,2.43019 -0.995331,4.21553 -3.087488,5.51046 -0.838623,0.51906 -0.84006,0.52378 -0.396875,1.30271 0.244637,0.42997 0.538835,0.78251 0.653773,0.78343 0.674818,0.005 5.023738,-2.70216 5.754464,-3.58263 0.21223,-0.25572 0.386028,-0.95285 0.386216,-1.54918 3.34e-4,-1.06123 0.01985,-1.08422 0.920012,-1.08422 0.762506,0 0.962943,0.12304 1.172887,0.72002 0.231557,0.65842 0.127442,0.8438 -1.217138,2.16708 -1.715438,1.68827 -4.372789,3.47235 -5.816045,3.90476 -1.137421,0.34078 -1.111122,0.28588 -0.739647,1.54426 0.467805,1.5847 0.743246,4.43635 0.522883,5.41341 -0.196483,0.87118 -0.167114,0.93484 0.431251,0.93484 1.110747,0 2.445274,0.72859 2.999747,1.63773 0.293785,0.4817 0.787377,1.64972 1.096872,2.59561 0.309495,0.94588 0.648438,1.81429 0.753206,1.92979 0.104769,0.1155 0.633786,-0.33098 1.175594,-0.99219 0.898637,-1.09666 1.651778,-1.47023 2.086897,-1.03511 0.265694,0.2657 -0.322437,1.16528 -1.745734,2.6702 -0.72618,0.76783 -1.530137,1.39606 -1.78657,1.39606 -0.362255,0 -0.676628,-0.66801 -1.409549,-2.99512 -0.518819,-1.64731 -1.16994,-3.20021 -1.446937,-3.45089 -0.908225,-0.82193 -2.260719,-0.84209 -4.004145,-0.0597 -0.867815,0.38945 -2.162248,0.77731 -2.876518,0.8619 l -1.298672,0.15381 -0.161642,1.17931 c -0.333762,2.43506 -1.815879,3.76667 -4.47563,4.02116 l -1.64328,0.15722 -0.13229,1.69913 c -0.13738,1.76451 -0.54461,2.30349 -1.04042,1.37705 z m 10.101962,-9.83684 c 1.649203,-0.45801 2.363758,-1.26713 2.515723,-2.84865 0.16132,-1.67889 -0.291532,-4.10759 -1.179465,-6.32561 -0.36547,-0.91293 -0.696225,-1.65987 -0.735013,-1.65987 -0.03879,0 -0.651204,0.2575 -1.360926,0.57221 -0.709723,0.31471 -1.824428,0.709 -2.477124,0.87619 -1.060014,0.27152 -1.220277,0.41524 -1.50102,1.34602 -0.42827,1.41989 -0.411885,5.05066 0.02836,6.28508 0.568411,1.59377 1.109614,2.03322 2.501946,2.03153 0.66867,-8.2e-4 1.662052,-0.12542 2.207516,-0.2769 z m -7.182544,-10.44702 c -0.451908,-0.51469 -1.105098,-1.49696 -1.451538,-2.18281 -0.82374,-1.63077 -1.58899,-5.11187 -1.37478,-6.25375 0.23142,-1.23355 1.93344,-2.72919 4.65714,-4.09245 2.856052,-1.4295 2.944991,-1.5452 0.517448,-0.67313 -3.103488,1.11488 -5.363128,2.35738 -6.425258,3.53304 -0.86741,0.96011 -0.97639,1.23718 -0.97143,2.46973 0.003,0.77558 0.28595,2.18276 0.64084,3.18838 0.97833,2.7722 2.28771,4.23821 4.18885,4.6899 0.469299,0.11151 0.89537,0.21492 0.946825,0.22982 0.05146,0.0149 -0.276189,-0.39403 -0.728097,-0.90873 z m 3.959957,-0.02 c 3.113588,-0.92432 6.408189,-3.02691 7.01369,-4.47608 0.761226,-1.82187 0.260265,-5.14709 -1.100086,-7.30203 -0.915591,-1.45039 -1.695729,-1.8923 -2.931383,-1.66049 -2.688146,0.5043 -8.026256,3.46748 -8.628756,4.78981 -0.71609,1.57166 1.07115,6.98762 2.780535,8.42598 0.912755,0.76803 1.005209,0.77522 2.866,0.22281 z m -1.58771,-5.09616 c -0.351016,-0.65588 -0.370475,-2.32911 -0.02954,-2.53982 0.423649,-0.26183 1.111967,1.08806 1.021971,2.00423 -0.09952,1.01313 -0.594037,1.28001 -0.992434,0.53559 z m 5.695821,-2.72362 c -0.48511,-0.69259 -0.559519,-1.95617 -0.130797,-2.22113 0.475127,-0.29365 1.339429,0.80249 1.385645,1.75732 0.05305,1.09596 -0.63416,1.34996 -1.254848,0.46381 z"
       id="path1572883" /><path
       style="fill:#ffffff"
       d="m 251.26833,196.83165 c -0.20283,-0.3282 0.058,-1.49043 0.55664,-2.48011 0.35167,-0.69802 0.33512,-0.74276 -0.36786,-0.994 -3.02208,-1.08007 -4.55506,-2.99541 -4.56676,-5.70581 l -0.006,-1.34531 -2.18282,0.10902 c -2.60179,0.12994 -3.65144,0.42005 -4.69407,1.29737 -1.06444,0.89566 -1.22166,2.02891 -0.65566,4.72598 0.61525,2.93177 0.49338,3.09931 -2.0901,2.87339 -1.0377,-0.0907 -1.99479,-0.26381 -2.12687,-0.38458 -0.47069,-0.43041 0.40137,-0.97841 1.84378,-1.15863 l 1.45552,-0.18185 -0.20666,-0.97213 c -0.11367,-0.53466 -0.20667,-1.82687 -0.20667,-2.87156 0,-2.35443 0.5084,-3.16192 2.46892,-3.92139 1.00941,-0.39103 1.32236,-0.63277 1.19884,-0.92604 -0.85317,-2.02564 -0.986,-2.72627 -1.00325,-5.29167 l -0.0187,-2.77812 -1.06422,1.07117 c -1.01111,1.01773 -5.32233,3.86371 -6.57356,4.33943 -0.32233,0.12254 -0.74457,0.41381 -0.9383,0.64725 -0.41536,0.50047 -1.37235,0.55664 -1.82205,0.10694 -0.17462,-0.17463 -0.3175,-0.71414 -0.3175,-1.19893 0,-1.05289 0.52798,-1.34574 1.65755,-0.91937 0.67464,0.25465 0.97784,0.1998 2.1438,-0.38781 2.00709,-1.01151 4.69425,-2.81541 5.53989,-3.71894 l 0.74229,-0.79309 -2.0652,-0.97901 c -3.60417,-1.70855 -4.6584,-3.19996 -4.68956,-6.63431 -0.0327,-3.6056 1.34058,-6.88827 3.29281,-7.87094 0.63933,-0.32181 1.5452,-0.46274 2.97636,-0.46302 l 2.05732,-4.1e-4 -0.38822,-0.72761 c -1.02561,-1.92222 -2.18074,-3.37868 -2.74324,-3.45884 -0.87016,-0.12399 -1.45763,-1.13131 -1.14276,-1.95946 0.3054,-0.80327 0.94933,-1.0894 1.63084,-0.72467 0.53663,0.28719 0.93677,1.37208 0.66703,1.80852 -0.0883,0.14283 0.1923,0.64595 0.6235,1.11805 0.43119,0.4721 1.14439,1.53454 1.58488,2.36098 l 0.80089,1.50263 2.7528,0.15589 c 2.98913,0.16927 4.36711,0.59661 5.53695,1.71713 2.61053,2.50046 1.56255,11.3684 -1.53968,13.02866 -0.67083,0.35902 -0.87238,0.78913 -0.36977,0.78913 0.38803,0 2.56624,1.48498 3.64616,2.48575 0.48759,0.45185 1.36462,1.51998 1.94895,2.37362 0.58434,0.85364 1.28674,1.77637 1.56088,2.05052 0.58235,0.58235 0.60391,0.77124 0.1914,1.67662 -0.40098,0.88004 -1.38779,0.89528 -1.95461,0.0302 -0.33286,-0.508 -0.35848,-0.76199 -0.12153,-1.20474 0.41153,-0.76895 -0.57505,-2.42485 -2.46398,-4.13559 -1.42873,-1.29395 -3.51853,-2.68228 -2.9151,-1.93659 1.03958,1.28464 0.91048,6.50872 -0.1979,8.00788 -0.76494,1.03465 -0.95533,2.92836 -0.42259,4.20338 0.48875,1.16975 2.09579,2.38926 3.76397,2.85633 0.67506,0.189 1.28556,0.49525 1.35666,0.68055 0.0711,0.1853 -0.13209,1.05377 -0.45155,1.92993 -0.60021,1.64612 -1.39146,2.66468 -1.69211,2.17822 z m -3.78929,-11.95248 c 0.48579,-0.22188 0.8143,-0.647 0.99071,-1.28204 0.62623,-2.25438 0.0647,-6.28585 -1.01119,-7.25949 -0.42298,-0.3828 -0.84624,-0.4157 -3.11149,-0.24183 l -2.62191,0.20123 0.005,3.175 c 0.004,2.67425 0.0945,3.36981 0.57088,4.41017 0.38514,0.8411 0.76331,1.27754 1.18533,1.36798 0.95678,0.20504 3.18437,-0.002 3.99238,-0.37102 z m -1.66149,-10.51715 c 0.5126,-0.5126 0.846,-1.23348 1.07069,-2.3151 0.43475,-2.09271 0.21596,-5.95855 -0.38951,-6.88262 -0.66212,-1.01052 -2.88739,-1.91517 -6.52797,-2.65383 -2.97624,-0.60387 -3.24568,-0.61995 -3.68762,-0.22 -1.39049,1.25838 -2.37369,5.34844 -1.84914,7.69235 0.38302,1.7115 1.29672,2.71133 3.48921,3.8181 1.93999,0.9793 3.05091,1.24518 5.34366,1.27892 1.64512,0.0242 1.87271,-0.0398 2.55068,-0.71782 z m -3.15704,-3.73613 c -0.32308,-0.60369 -0.36601,-2.31048 -0.0628,-2.49786 0.67982,-0.42015 1.56958,1.62518 1.09376,2.51426 -0.33954,0.63445 -0.68556,0.62894 -1.03094,-0.0164 z m -6.86852,-2.31637 c -0.33492,-1.21296 -0.10919,-2.25492 0.46455,-2.14443 0.47676,0.0918 0.89917,1.62214 0.69702,2.52518 -0.20642,0.92207 -0.8611,0.70747 -1.16157,-0.38075 z m 13.64724,5.17074 c 1.11582,-1.04826 1.75302,-3.06121 1.87225,-5.91447 0.0993,-2.37726 0.0481,-2.76608 -0.50455,-3.8304 -0.33831,-0.65152 -0.97229,-1.38865 -1.40885,-1.63808 -1.05954,-0.60537 -4.58677,-1.02112 -8.32744,-0.98155 -2.81894,0.0298 -2.92955,0.0494 -1.46215,0.25886 2.03377,0.29029 5.56761,1.39333 6.69666,2.09026 1.38799,0.85678 1.7473,2.02271 1.75302,5.68841 0.004,2.7004 -0.0807,3.36237 -0.56801,4.4285 l -0.57298,1.2535 0.97226,-0.40623 c 0.53474,-0.22343 1.23214,-0.65039 1.54979,-0.9488 z"
       id="path1572882" /><path
       style="fill:#ffffff"
       d="m 0.65878011,199.39797 c -0.12000897,-0.19418 0.30078979,-0.75051 1.09882019,-1.45274 l 1.2933101,-1.13806 -0.9540911,-0.99465 c -2.11636943,-2.20634 -2.59327172,-4.51105 -1.39804284,-6.75628 0.49237104,-0.92492 0.58022954,-1.28802 0.33072914,-1.36686 -0.18686642,-0.0591 -0.81600714,-0.24962 -1.39809046,-0.4235 -0.58208333,-0.17387 -1.66856264,-0.65941 -2.41439854,-1.07896 -3.4471364,-1.93912 -5.0981445,-1.08289 -6.5664274,3.40543 -0.2499253,0.76399 -0.6114877,1.38906 -0.8034722,1.38906 -0.388497,0 -3.047993,-2.80354 -3.047993,-3.21308 0,-0.14301 0.383152,-0.22272 0.851449,-0.17712 0.607528,0.0592 1.011203,0.32086 1.409096,0.91351 l 0.557647,0.8306 0.7350158,-1.68718 c 1.1872386,-2.72523 2.923663,-3.90383 4.9533306,-3.36209 l 0.9978857,0.26636 0.1505716,-1.21727 c 0.159561,-1.28994 0.9880751,-4.91514 1.2759315,-5.58289 0.1225796,-0.28436 -0.1448783,-0.54264 -0.9433528,-0.911 -3.6642271,-1.6904 -5.0166214,-5.28881 -3.4547563,-9.19229 0.3635267,-0.90855 0.3788318,-1.35575 0.1100327,-3.21509 -0.1717258,-1.18786 -0.3856034,-3.55926 -0.4752835,-5.26977 -0.1109261,-2.11576 -0.2770032,-3.2046 -0.5194779,-3.40584 -0.1960327,-0.16269 -0.3564231,-0.5643 -0.3564231,-0.89247 0,-0.32816 -0.1743972,-0.7414 -0.3875493,-0.9183 -0.3122275,-0.25913 -0.5564859,-0.20122 -1.2567708,0.29792 -1.2826792,0.91426 -2.8445572,0.84924 -3.9004622,-0.16238 -1.666971,-1.59706 -1.666467,-4.13405 0.0011,-5.53721 2.305536,-1.93998 5.384149,-0.34023 5.4299852,2.82161 0.018935,1.30616 0.060182,1.38016 1.0588873,1.89957 0.5715516,0.29725 1.3456597,0.74879 1.7202402,1.00341 1.0647585,0.72377 4.280663,1.72815 6.6361149,2.07257 3.5613882,0.52074 8.032971,-0.1003 9.1129964,-1.26566 0.349632,-0.37726 0.807123,-0.60616 1.083352,-0.54203 0.262981,0.061 1.272216,-0.2958 2.242743,-0.793 l 1.764596,-0.90399 -0.142938,-1.38493 c -0.254619,-2.46703 1.114363,-4.1282 3.402073,-4.1282 1.287455,0 1.297335,-0.007 2.301574,-1.56045 1.216596,-1.88232 2.275305,-4.97754 2.662918,-7.78526 0.157148,-1.13832 0.283019,-4.71019 0.279714,-7.9375 l -0.006,-5.86783 -0.874555,1.62239 c -1.712573,3.177 -4.676714,6.47547 -7.669534,8.53458 -1.720183,1.18352 -4.774243,2.6008 -6.3775828,2.95961 -1.2215017,0.27336 -1.4235669,0.42084 -1.8831863,1.37448 -0.7245557,1.50335 -2.1544548,2.23199 -3.5560149,1.81208 -1.0063242,-0.3015 -2.3812742,-1.60669 -2.3812742,-2.26045 0,-0.19847 -0.89540932,-0.57317 -2.18281249,-0.91344 -3.20880161,-0.84812 -5.76038901,-2.35903 -8.29126811,-4.90965 -2.0796712,-2.09589 -2.1703652,-2.15347 -3.2324392,-2.05218 -1.494125,0.14248 -2.767465,-0.66488 -3.351772,-2.12521 -0.530906,-1.32686 -0.379492,-2.42428 0.516691,-3.74488 l 0.642323,-0.94652 -0.534304,-1.52749 c -1.728566,-4.9417 -1.70333,-11.65224 0.06156,-16.36933 l 0.527591,-1.41012 -0.610597,-0.82658 c -0.460636,-0.62358 -0.607388,-1.16627 -0.597535,-2.20967 0.02162,-2.289275 1.550494,-3.862831 3.753151,-3.862831 0.884318,0 1.199771,-0.1907 2.4605345,-1.487462 2.4906885,-2.561805 6.7048647,-4.989269 9.60662968,-5.533644 C 0.8994257,90.151397 1.179871,89.935001 1.4609332,89.262324 2.5562417,86.640882 5.983369,86.562377 7.3102766,89.128333 c 0.2923109,0.565267 0.6448683,0.798854 1.3837762,0.916823 3.3304452,0.531715 7.0531712,2.266871 9.4740422,4.415833 0.951082,0.844258 1.828032,1.535014 1.948779,1.535014 0.500148,0 0.917349,-0.911665 0.849191,-1.855646 -0.151661,-2.10051 1.350658,-3.700604 3.474477,-3.700604 1.163997,0 1.424861,0.108916 2.180932,0.910584 1.158121,1.227966 1.37787,2.500981 0.679324,3.935351 -0.296563,0.608955 -0.868965,1.326268 -1.272003,1.594031 l -0.732797,0.48684 v 19.753781 c 0,21.494 -0.01489,21.7499 -1.506282,25.88851 -0.429293,1.19128 -1.235406,2.81532 -1.791362,3.60897 -1.009966,1.44178 -1.010421,1.44363 -0.532402,2.17233 0.796013,1.21345 0.886426,2.39659 0.279024,3.65132 -0.894839,1.84849 -2.777949,2.53078 -4.511165,1.6345 -0.722517,-0.37362 -0.822659,-0.35075 -2.037381,0.46534 -0.702633,0.47205 -1.723999,1.12111 -2.269703,1.44235 -0.871698,0.51315 -0.992187,0.70693 -0.992187,1.59574 0,1.43855 -0.675942,3.90435 -1.573264,5.73918 -0.7528486,1.53942 -0.7592911,1.58831 -0.296342,2.24896 0.86771,1.23827 1.138812,2.56623 0.937582,4.59265 -0.415914,4.18834 -1.8668181,6.83692 -4.2422646,7.74411 -1.1443942,0.43705 -1.1915072,0.49618 -1.0178635,1.27758 0.100139,0.45063 0.1829799,1.79075 0.1840907,2.97804 0.00257,2.74508 -0.7355563,4.44274 -2.2824803,5.24962 -1.0942554,0.57077 -2.1931711,2.13215 -2.4483031,3.47864 -0.21404951,1.12967 0.5675449,2.82078 2.1024631,4.54901 0.6754267,0.7605 1.2280484,1.44611 1.2280484,1.52357 0,0.4624 -0.6877181,1.24807 -1.7052844,1.94817 -1.2478721,0.85856 -1.8496459,0.99467 -2.16214219,0.48904 z M 3.653273,186.15277 c 1.0354173,-1.13679 1.2546227,-1.8654 1.2537161,-4.16719 -0.00143,-3.62108 0.019024,-3.59054 -2.5587454,-3.82057 -4.08901,-0.36488 -3.6799123,-0.49089 -4.2434455,1.30703 -0.2736696,0.87313 -0.564254,2.49694 -0.6457432,3.60848 -0.1436483,1.9594 -0.1271328,2.03475 0.5420887,2.47324 0.9660303,0.63297 2.75711905,1.1557 4.0315466,1.17662 0.7960878,0.0131 1.220291,-0.13813 1.6205827,-0.57761 z m 1.4785609,-9.46221 c 0.7952872,-0.62557 1.3991521,-2.30693 1.7630248,-4.90884 0.4375194,-3.12853 -0.024046,-3.95834 -3.0430385,-5.47084 -2.0620712,-1.03308 -4.05926313,-1.59784 -5.7566403,-1.62785 -1.5020241,-0.0266 -1.6004576,0.0135 -2.4527114,0.99823 -1.5231424,1.75987 -2.225711,5.7882 -1.3162357,7.54694 1.1656813,2.25417 4.68286247,3.92127 8.3783551,3.97122 1.3775658,0.0186 1.8944108,-0.0897 2.427246,-0.50886 z m -2.6256443,-4.1455 c -0.1838105,-0.73236 0.3585368,-2.06885 0.8395376,-2.06885 0.3809836,0 0.468411,1.96402 0.1068218,2.39971 -0.4657652,0.56121 -0.7471545,0.46284 -0.9463594,-0.33086 z m -7.1187179,-0.8954 c -0.4831704,-0.78178 0.5289999,-2.91183 1.1896451,-2.50353 0.3003283,0.18561 0.3739583,1.69343 0.1155743,2.36677 -0.1817876,0.47373 -1.041301,0.56379 -1.3052194,0.13676 z m 12.4018099,4.44094 c 1.4392929,-1.43929 2.0960506,-3.56257 2.1341364,-6.89959 l 0.026747,-2.34354 -1.007527,-0.87276 c -1.1073341,-0.95923 -3.3305233,-1.66518 -7.483612,-2.37636 -1.65604101,-0.28359 -2.6042227,-0.33259 -3.0427083,-0.15726 -0.5904565,0.2361 -0.5680182,0.25593 0.3071794,0.27147 2.23814962,0.0398 7.3229867,2.27432 8.5831272,3.77192 0.5700945,0.67751 0.6591657,1.04305 0.6591657,2.70512 0,2.16361 -0.8356577,5.81972 -1.497281,6.55081 -0.9110102,1.00665 0.2214894,0.44947 1.3207726,-0.64981 z M -2.2946651,162.42713 c 1.0543679,-0.2952 1.64427779,-0.2639 4.6102861,0.24462 1.8706659,0.32072 4.0560545,0.8106 4.856419,1.08862 1.7035622,0.59176 1.7613302,0.55248 2.6395565,-1.79479 0.4937595,-1.31969 1.1893365,-4.8143 0.9966125,-5.00702 -0.0489,-0.0489 -0.738209,0.0889 -1.5318061,0.30615 -3.6382073,0.99611 -8.9269718,0.70907 -12.768753,-0.69301 -1.6471283,-0.60112 -2.1879804,-0.70403 -2.3604631,-0.4491 -0.2126042,0.31422 -0.1006371,3.84529 0.2266659,7.1483 l 0.1512093,1.52594 0.9855989,-1.01559 c 0.624247,-0.64325 1.4288842,-1.13971 2.194674,-1.35412 z M 1.440621,135.44408 c 0.5127978,-1.16228 1.4036006,-1.85337 2.6439365,-2.05118 1.0574412,-0.16863 2.4630559,0.72926 3.2157452,2.05419 l 0.5331956,0.93856 1.217219,-0.31357 c 5.1716957,-1.3323 10.8515067,-6.16646 13.3235627,-11.33987 1.559432,-3.2635 1.731093,-4.40355 1.731093,-11.49668 0,-6.12717 -0.02578,-6.44613 -0.691983,-8.56077 -1.111692,-3.5287 -2.701409,-6.258331 -4.008515,-6.882847 -0.397903,-0.190112 -0.760397,-0.603968 -0.805543,-0.919679 -0.234135,-1.637359 -5.911925,-4.792416 -9.8641716,-5.481363 -0.9139849,-0.159324 -0.9662423,-0.125399 -1.3631048,0.884915 -0.4727129,1.20341 -1.7688436,2.130739 -2.9781405,2.130739 -1.1425703,0 -2.4828131,-0.918188 -2.9410397,-2.014878 -0.376772,-0.901743 -0.4423064,-0.938691 -1.37314098,-0.774172 -0.53761727,0.09502 -2.08884292,0.718567 -3.44716812,1.385659 -1.886738,0.926602 -2.9673091,1.688389 -4.5779122,3.227361 l -2.1082301,2.014466 0.5430165,1.048131 c 0.6584715,1.270988 0.6873453,2.271908 0.1011716,3.507178 -0.5475028,1.15378 -1.7651181,1.92469 -3.0420011,1.92599 -0.899293,9.2e-4 -1.000886,0.0833 -1.388174,1.12547 -1.696888,4.5663 -1.805622,10.42343 -0.282986,15.24342 0.643165,2.03598 0.652291,2.04792 1.584798,2.07436 2.49365,0.0707 4.0217753,2.85505 2.8834537,5.25389 -0.3992597,0.84137 -0.3924427,0.9314 0.1256105,1.65894 0.8698375,1.22158 3.5718084,3.61173 4.9693179,4.39585 1.2009771,0.67384 4.64523494,1.97733 5.26434468,1.9923 0.15389587,0.004 0.48493622,-0.45817 0.73564522,-1.02641 z M 24.105373,99.832461 c 0,-2.276572 -0.04652,-2.513542 -0.493485,-2.513542 -0.271417,0 -0.816642,-0.254194 -1.211611,-0.564877 -0.649839,-0.511164 -0.757275,-0.525728 -1.129842,-0.153161 -0.372567,0.372567 -0.309311,0.565072 0.665232,2.024461 0.592322,0.88701 1.286202,2.087028 1.541955,2.666698 0.255752,0.57968 0.501623,1.05396 0.546378,1.05396 0.04475,0 0.08137,-1.13109 0.08137,-2.513539 z"
       id="path1572881" /><path
       style="fill:#ffffff"
       d="m 84.470667,205.71434 c -0.161974,-0.19517 -0.589529,-1.13867 -0.950123,-2.09668 -0.769588,-2.04461 -0.695115,-2.17735 1.449742,-2.58412 0.777407,-0.14743 1.680404,-0.44296 2.00666,-0.65673 1.812743,-1.18776 2.804447,-4.07098 1.788046,-5.19847 -0.734344,-0.8146 -0.662846,-5.01952 0.12408,-7.29743 0.312611,-0.90492 0.568383,-1.68326 0.568383,-1.72966 0,-0.0464 -0.368411,-0.11243 -0.818691,-0.14674 -1.777271,-0.13543 -3.193201,-1.38642 -4.454727,-3.93581 -1.910455,-3.8608 -2.068368,-6.76307 -0.463644,-8.52126 0.55168,-0.60444 4.089658,-3.05126 4.711846,-3.25866 0.325049,-0.10835 -2.046553,-5.23653 -2.42171,-5.23653 -0.432798,0 -1.05099,-0.84295 -1.05099,-1.4331 0,-1.34148 1.784996,-1.96489 2.500283,-0.87323 0.31942,0.4875 0.338932,0.78944 0.101095,1.56438 -0.270456,0.88123 -0.212672,1.12012 0.701862,2.90164 1.40754,2.7419 1.215198,2.62572 3.171489,1.91563 4.252399,-1.54354 6.649618,-0.99488 8.250054,1.88822 1.065708,1.91981 1.805688,5.01681 1.584418,6.63117 -0.30368,2.21556 -1.690796,4.07017 -4.204514,5.62153 -1.063869,0.65657 -1.165816,0.95695 -0.683816,2.01483 0.398102,0.87374 2.949611,1.69838 5.91407,1.91141 1.76495,0.12683 2.18161,0.0799 2.47979,-0.27939 0.68982,-0.83119 1.8811,-0.35066 1.8811,0.75878 0,0.3056 -0.14287,0.6985 -0.3175,0.87313 -0.36522,0.36522 -1.4365,0.42566 -1.64231,0.0927 -0.0764,-0.12366 -1.18478,-0.29566 -2.46301,-0.38222 -2.02141,-0.13689 -3.673908,-0.48736 -5.102178,-1.08209 -0.335892,-0.13987 -0.398248,0.2143 -0.405809,2.30492 l -0.0089,2.47019 1.599733,1.10285 c 1.853274,1.27765 2.344164,1.35134 2.940384,0.4414 0.60973,-0.93056 0.98041,-0.8339 0.76099,0.19843 -0.41692,1.96161 -1.73908,2.30529 -3.562617,0.92605 -2.301969,-1.7411 -2.078505,-1.66375 -2.377626,-0.82299 -0.148096,0.41626 -0.376914,0.94539 -0.508484,1.17584 -0.188633,0.33039 -0.04885,0.48784 0.661016,0.74453 1.552996,0.56157 3.044154,3.17701 3.824371,6.70782 0.3258,1.47438 0.57132,1.81032 0.91577,1.25299 0.15788,-0.25545 2.06761,-1.31913 2.36837,-1.31913 0.52481,0 -0.0674,0.9366 -1.24169,1.96385 -2.09233,1.83032 -2.509466,1.65585 -3.113937,-1.30239 -0.693309,-3.39302 -2.100492,-5.92309 -3.614468,-6.4987 -0.359022,-0.1365 -1.657047,-0.24818 -2.884501,-0.24818 -2.153403,0 -2.231734,0.0214 -2.231734,0.60951 0,1.06609 -1.339159,3.36769 -2.411377,4.1444 -0.559338,0.40518 -1.555285,0.87224 -2.213217,1.03791 -0.657931,0.16567 -1.196239,0.36378 -1.196239,0.44024 0,0.0765 0.238125,0.60579 0.529167,1.17627 0.622869,1.22093 0.659604,1.67904 0.167396,2.08754 -0.273119,0.22666 -0.433937,0.21328 -0.656268,-0.0546 z m 9.876072,-10.86691 c 0.864313,-0.86431 1.171947,-2.51982 0.534531,-2.87654 -1.127,-0.6307 -2.517022,-2.1719 -2.92695,-3.24528 -0.823861,-2.15725 0.282533,-2.81713 1.208474,-0.72076 0.594235,1.34538 2.054994,3.04519 2.422002,2.81836 0.604502,-0.3736 -0.05956,-6.61413 -0.675621,-6.34913 -0.16079,0.0692 -0.947188,0.32841 -1.747553,0.57609 -2.039017,0.63101 -2.511226,1.00732 -3.161822,2.51967 -0.607373,1.41188 -1.018366,5.17895 -0.702386,6.43792 0.368278,1.46733 3.843716,2.04528 5.049325,0.83967 z M 90.188178,184.896 c 0.662746,0 0.647873,-0.0339 -0.414,-0.9428 -2.348697,-2.01039 -4.159242,-7.33531 -3.148565,-9.2601 0.592264,-1.12795 2.464149,-2.85288 4.271486,-3.93616 2.166193,-1.29838 1.553203,-1.18024 -1.305321,0.25157 -4.058976,2.0331 -5.951706,3.75964 -5.954167,5.43138 -5.44e-4,0.36961 0.178511,1.36116 0.3979,2.20345 1.038125,3.98563 3.328743,6.82952 5.112855,6.3478 0.193803,-0.0523 0.661718,-0.0951 1.039812,-0.0951 z m 4.718536,-1.68631 c 1.027466,-0.4924 2.546731,-1.53032 3.388745,-2.3151 1.303167,-1.21459 1.562044,-1.61469 1.770871,-2.7369 0.28751,-1.54509 -0.0123,-3.49807 -0.828282,-5.39478 -0.736842,-1.71284 -1.788278,-2.69203 -3.070341,-2.85938 -1.545005,-0.20166 -5.023774,1.62649 -7.173272,3.76968 -1.469122,1.46481 -1.653646,1.765 -1.653646,2.6902 0,2.27069 1.964326,6.27253 3.555055,7.24257 1.142131,0.69648 1.883491,0.62323 4.01087,-0.39629 z m -2.903993,-3.47914 c -0.464715,-0.46472 -0.832611,-2.06781 -0.571501,-2.4903 0.551589,-0.89249 1.465819,0.25295 1.465819,1.83652 0,0.93598 -0.353612,1.19449 -0.894318,0.65378 z m 5.298609,-3.52308 c -0.235911,-0.26067 -0.564711,-0.86346 -0.730667,-1.33952 -0.246045,-0.70581 -0.228829,-0.93847 0.09328,-1.26058 0.350294,-0.35029 0.458961,-0.31371 0.95989,0.32312 0.565333,0.7187 0.773708,2.33855 0.335655,2.60928 -0.126073,0.0779 -0.422241,-0.0716 -0.658153,-0.3323 z"
       id="path1572880" /><path
       id="path1572878"
       style="fill:#ffffff"
       d="m 189.12006,215.12464 c -0.0641,-0.10914 -0.44109,-1.26955 -0.83775,-2.5787 -0.77902,-2.5711 -1.42901,-3.70855 -2.27213,-3.97614 -0.29459,-0.0935 -1.64777,0.0303 -3.00707,0.27499 -2.32579,0.41877 -2.52771,0.41831 -3.42586,-0.008 -1.63811,-0.77734 -4.04368,-4.89583 -4.51803,-7.73517 -0.10332,-0.61847 -0.20716,-1.12307 -0.23075,-1.12134 -0.69921,0.0512 -3.00767,0.87751 -3.37161,1.20688 -1.19679,1.08307 -0.85176,3.43016 0.7301,4.96662 0.98713,0.95879 0.98571,1.49627 -0.004,1.49627 -1.58334,0 -2.94713,-2.18423 -2.76149,-4.42277 0.12933,-1.55954 0.69462,-2.52313 2.00284,-3.41404 l 0.82344,-0.56078 -1.07412,-0.86318 c -1.20393,-0.96751 -3.15442,-3.83766 -3.65428,-5.37729 -0.65475,-2.0167 0.28332,-4.5026 2.72304,-7.21616 l 1.20566,-1.34098 -0.92213,-1.30084 c -0.60407,-0.85216 -1.1659,-1.34678 -1.62892,-1.43405 -0.39641,-0.0747 -0.8784,-0.43895 -1.09756,-0.82941 -0.35038,-0.62424 -0.3439,-0.76769 0.0626,-1.38813 0.88624,-1.35259 2.79357,-0.48153 2.47152,1.12872 -0.12903,0.64517 0.026,0.98269 0.91536,1.99308 l 1.07069,1.21637 1.20989,-1.06498 c 1.38371,-1.218 3.58966,-1.99075 4.95286,-1.73501 1.87129,0.35106 4.97529,3.62989 6.10127,6.44492 0.90458,2.26153 0.16602,4.67917 -2.30046,7.53041 l -1.31582,1.52108 0.74554,0.28898 c 0.90624,0.35127 2.95038,0.14937 4.00399,-0.39547 0.42535,-0.21996 1.4069,-0.9407 2.18122,-1.60165 1.48371,-1.26647 1.83637,-1.42855 1.83637,-0.84398 0,0.87709 -1.28681,2.19506 -2.99252,3.06498 -1.49816,0.76406 -2.05174,0.90666 -3.46812,0.89333 l -1.68541,-0.0159 1.2673,1.5727 c 0.69701,0.86499 1.53922,2.14544 1.87156,2.84546 l 0.60426,1.27275 0.84196,-0.89273 c 2.13997,-2.26903 5.18543,-2.20926 7.87774,0.15463 0.74458,0.65374 0.97489,0.75169 0.97489,0.41458 0,-0.75898 1.1062,-3.05302 1.47218,-3.05302 0.63493,0 0.66082,0.47695 0.12986,2.39296 -0.52824,1.90621 -0.91481,2.63412 -1.3989,2.63412 -0.14368,0 -0.9095,-0.59248 -1.70183,-1.31662 -1.59337,-1.45625 -2.99979,-2.01643 -4.40207,-1.75336 -1.25655,0.23573 -2.04116,0.90737 -3.87655,3.31845 l -1.56163,2.05144 1.2377,-0.1028 c 0.71238,-0.0592 1.51845,0.0451 1.89916,0.24563 0.78545,0.41375 1.96621,2.48089 2.42076,4.23799 0.35097,1.35673 0.50337,1.48098 1.0333,0.84245 0.59596,-0.71808 1.86144,-1.25518 2.18799,-0.92862 0.20973,0.20972 -0.14296,0.72669 -1.27888,1.8746 -1.5588,1.57523 -1.84406,1.76657 -2.06723,1.38657 z m -6.45722,-7.98624 c 0.48632,-0.42699 1.10647,-1.18906 1.37812,-1.69348 0.47137,-0.87528 0.47334,-0.97098 0.0432,-2.09739 -0.3335,-0.87324 -3.22655,-5.19169 -3.98855,-5.95369 -0.0901,-0.0901 -3.29865,1.7032 -3.8187,2.13438 -0.92558,0.76741 0.50472,4.95205 2.48215,7.26205 0.82605,0.96498 1.10847,1.12448 1.99109,1.12448 0.76039,0 1.25903,-0.20239 1.91273,-0.77635 z m -9.20611,-9.57612 c -1.38032,-1.27233 -2.7762,-3.92303 -2.96963,-5.63918 -0.20828,-1.84786 0.86034,-3.74587 3.76316,-6.68382 1.32315,-1.33916 2.69926,-2.55201 3.05803,-2.69521 l 0.65229,-0.26036 -0.73815,-0.0168 c -1.18486,-0.0269 -2.62544,0.87768 -5.045,3.168 -2.41884,2.28963 -3.87414,4.61797 -3.87414,6.19824 0,2.38515 3.7929,7.01688 5.74877,7.02016 0.51299,8.6e-4 0.4358,-0.1406 -0.59533,-1.09106 z m 5.36697,-0.74011 c 2.6058,-1.68421 5.09,-5.27996 5.09,-7.36751 0,-1.9509 -2.46099,-5.67662 -4.23502,-6.41145 -0.76263,-0.31589 -0.90525,-0.27388 -2.27651,0.67054 -3.03325,2.08909 -5.92178,5.9608 -5.91559,7.92912 0.006,1.8779 1.62516,4.71107 3.2635,5.71008 1.26291,0.77009 2.26242,0.63986 4.07362,-0.53078 z m -3.7184,-5.01262 c -0.59324,-0.97299 -0.67096,-1.66528 -0.21834,-1.94501 0.46523,-0.28753 1.54416,1.12801 1.54416,2.02591 0,1.05712 -0.65637,1.01707 -1.32582,-0.0809 z m 5.6305,-3.27553 c -0.59324,-0.97299 -0.67096,-1.66528 -0.21834,-1.94501 0.46523,-0.28753 1.54416,1.12801 1.54416,2.02591 0,1.05712 -0.65637,1.01707 -1.32582,-0.0809 z" /></g></svg>
